<svg height="640pt" viewBox="-20 -145 640.00005 640" width="640pt" xmlns="http://www.w3.org/2000/svg"><path d="m180.078125 331.597656c0 5.519532 4.476563 9.996094 10 9.996094 5.519531 0 9.996094-4.476562 9.996094-9.996094 0-22.09375 17.910156-39.992187 39.992187-39.992187 5.523438 0 10-4.476563 10-10 0-5.519531-4.476562-9.996094-10-9.996094-22.082031 0-39.992187-17.910156-39.992187-39.996094 0-5.519531-4.476563-9.996093-9.996094-9.996093-5.523437 0-10 4.476562-10 9.996093 0 22.085938-17.902344 39.996094-39.992187 39.996094-5.519532 0-9.996094 4.476563-9.996094 9.996094 0 5.523437 4.476562 10 9.996094 10 22.089843 0 39.992187 17.898437 39.992187 39.992187zm10-66.894531c4.453125 6.703125 10.199219 12.449219 16.894531 16.902344-6.695312 4.449219-12.441406 10.195312-16.894531 16.898437-4.453125-6.703125-10.195313-12.449218-16.898437-16.898437 6.703124-4.453125 12.445312-10.199219 16.898437-16.902344zm0 0"/><path d="m400.039062-8.339844c-89.300781 0-183.707031 23.804688-198.03125 68.175782l-121.300781-24.257813c-26.757812-5.394531-54.128906 5.886719-69.316406 28.574219-15.1875 22.679687-15.1875 52.289062 0 74.976562 15.1875 22.679688 42.558594 33.960938 69.316406 28.566406l119.367188-23.867187v7.800781c0 20.105469 15.46875 36.601563 39.992187 49.296875v20.691407c0 5.519531 4.476563 9.996093 10 9.996093 5.519532 0 9.996094-4.476562 9.996094-9.996093v-11.878907c6.332031 2.378907 13.003906 4.570313 20 6.566407v15.308593c0 5.523438 4.476562 10 9.996094 10 5.523437 0 10-4.476562 10-10v-10.289062c6.511718 1.433593 13.179687 2.71875 19.996094 3.863281v16.425781c0 5.519531 4.476562 10 9.996093 10 5.523438 0 10-4.480469 10-10v-13.582031c6.597657.792969 13.277344 1.449219 19.996094 2.003906v11.578125c0 5.519531 4.476563 10 9.996094 10 5.523437 0 10-4.480469 10-10v-10.40625c6.667969.265625 13.347656.40625 19.996093.40625v10c0 5.519531 4.476563 10 9.996094 10 5.523438 0 10-4.480469 10-10v-10.40625c6.667969-.265625 13.332032-.65625 19.996094-1.183593v11.589843c0 5.519531 4.476562 10 9.996094 10 5.523437 0 10-4.480469 10-10v-13.582031c6.761718-.820312 13.449218-1.757812 19.996094-2.84375v16.425781c0 5.519531 4.476562 10 9.996093 10 5.523438 0 10-4.480469 10-10v-20.289062c6.878907-1.507813 13.566407-3.179688 19.996094-5v15.289062c0 5.523438 4.476563 10 9.996094 10 5.523437 0 10-4.476562 10-10v-21.875c6.835937-2.539062 13.511719-5.476562 19.996093-8.8125v10.691407c0 5.523437 4.476563 10 9.996094 10 5.523438 0 10-4.476563 10-10v-23.597657c11.90625-8.410156 19.277344-21.832031 19.996094-36.390625v-79.984375c0-51.992187-102.976562-79.984375-199.960938-79.984375zm0 19.996094c106.046876 0 179.964844 31.609375 179.964844 59.988281v43.589844c-34.621094-28.503906-108.898437-43.589844-179.964844-43.589844-71.066406 0-145.34375 15.085938-179.96875 43.589844v-43.589844c0-28.378906 73.917969-59.988281 179.96875-59.988281zm-323.261718 136.433594c-17.695313 3.558594-35.875-3.246094-46.882813-17.550782-11.011719-14.300781-12.9375-33.621093-4.972656-49.816406 7.972656-16.195312 24.449219-26.457031 42.5-26.464844 3.140625.003907 6.277344.316407 9.355469.929688l123.296875 24.65625v43.589844zm498.910156 15.507812c-1.640625-1.242187-3.625-1.929687-5.683594-1.96875-5.519531 0-9.996094 4.476563-9.996094 9.996094v6.214844c-6.550781 4.140625-13.453124 7.695312-20.625 10.628906-1.519531-4.652344-6.199218-7.503906-11.035156-6.71875-4.828125.789062-8.367187 4.976562-8.332031 9.871094v3.859375c-6.289063 2-12.996094 3.789062-20.132813 5.457031-.34375-5.367188-4.886718-9.484375-10.261718-9.304688-5.371094.183594-9.628906 4.609376-9.597656 9.988282v3.347656c-6.429688 1.128906-13.078126 2.140625-19.996094 3v-6.347656c0-5.523438-4.476563-10-10-10-5.519532 0-9.996094 4.476562-9.996094 10v8.40625c-6.507812.519531-13.15625.9375-19.996094 1.199218v-9.605468c0-5.523438-4.476562-10-10-10-5.519531 0-9.996094 4.476562-9.996094 10v9.996094c-6.804687 0-13.46875-.128907-19.996093-.390626v-9.605468c0-5.523438-4.476563-10-10-10-5.519531 0-9.996094 4.476562-9.996094 10v8.40625c-6.878906-.542969-13.519531-1.25-19.996094-2.058594v-6.347656c0-5.523438-4.476562-10-10-10-5.519531 0-9.996093 4.476562-9.996093 10v3.347656c-6.996094-1.21875-13.648438-2.5625-19.996094-4.0625v-9.285156c0-5.519532-4.476563-9.996094-10-9.996094-5.519532 0-9.996094 4.476562-9.996094 9.996094v3.859375c-7.242188-2.261719-13.949219-4.679688-20-7.261719v-6.59375c.039062-4.867188-3.449219-9.046875-8.242188-9.875-4.796874-.832031-9.488281 1.9375-11.082031 6.535156-13.328125-8.488281-20.667969-17.730468-20.667969-26.65625 0-10.816406 10.808594-22.109375 29.996094-31.9375v21.941406c0 5.519532 4.476563 9.996094 9.996094 9.996094 5.523438 0 10-4.476562 10-9.996094v-29.996093c0-.179688-.085938-.332031-.097656-.511719 19.503906-6.796875 39.632812-11.648438 60.085937-14.484375v14.996094c0 5.523437 4.476563 10 10 10 5.519531 0 9.996094-4.476563 9.996094-10v-17.457031c6.492187-.667969 13.15625-1.195313 19.996094-1.589844v19.046875c0 5.523437 4.476562 10 10 10 5.519531 0 9.996093-4.476563 9.996093-10v-19.804688c3.332032-.074219 6.601563-.191406 10-.191406 3.402344 0 6.667969.117187 9.996094.191406v19.804688c0 5.523437 4.476563 10 10 10 5.519532 0 9.996094-4.476563 9.996094-10v-19c6.839844.414062 13.503906.949219 19.996094 1.59375v17.40625c0 5.523437 4.476562 10 10 10 5.519531 0 9.996094-4.476563 9.996094-10v-14.996094c20.460937 2.835937 40.589843 7.6875 60.09375 14.484375 0 .179688-.105469.332031-.105469.511719v29.996093c0 5.519532 4.476562 9.996094 10 9.996094 5.519531 0 9.996093-4.476562 9.996093-9.996094v-21.941406c19.1875 9.828125 29.996094 21.121094 29.996094 31.9375-.183594 4.351563-1.703125 8.539063-4.351562 11.996094zm0 0"/><path d="m70.101562 71.644531c-16.566406 0-29.996093 13.425781-29.996093 29.996094 0 16.5625 13.429687 29.992187 29.996093 29.992187 16.5625 0 29.992188-13.429687 29.992188-29.992187 0-16.570313-13.429688-29.996094-29.992188-29.996094zm0 39.992188c-5.523437 0-10-4.476563-10-9.996094 0-5.523437 4.476563-10 10-10 5.519532 0 9.996094 4.476563 9.996094 10 0 5.519531-4.476562 9.996094-9.996094 9.996094zm0 0"/><path d="m300.058594 121.636719c-5.523438 0-10 4.476562-10 9.996093v19.996094c0 5.523438 4.476562 10 10 10 5.519531 0 9.996094-4.476562 9.996094-10v-19.996094c0-5.519531-4.476563-9.996093-9.996094-9.996093zm0 0"/><path d="m500.019531 121.636719c-5.523437 0-10 4.476562-10 9.996093v19.996094c0 5.523438 4.476563 10 10 10 5.519531 0 9.996094-4.476562 9.996094-10v-19.996094c0-5.519531-4.476563-9.996093-9.996094-9.996093zm0 0"/><path d="m340.050781 141.632812c-5.523437 0-10 4.476563-10 9.996094v10c0 5.519532 4.476563 9.996094 10 9.996094 5.519531 0 9.996094-4.476562 9.996094-9.996094v-10c0-5.519531-4.476563-9.996094-9.996094-9.996094zm0 0"/><path d="m380.042969 141.632812c-5.523438 0-10 4.476563-10 9.996094v10c0 5.519532 4.476562 9.996094 10 9.996094 5.519531 0 9.996093-4.476562 9.996093-9.996094v-10c0-5.519531-4.476562-9.996094-9.996093-9.996094zm0 0"/><path d="m420.035156 141.632812c-5.523437 0-10 4.476563-10 9.996094v10c0 5.519532 4.476563 9.996094 10 9.996094 5.519532 0 9.996094-4.476562 9.996094-9.996094v-10c0-5.519531-4.476562-9.996094-9.996094-9.996094zm0 0"/><path d="m460.027344 141.632812c-5.523438 0-10 4.476563-10 9.996094v10c0 5.519532 4.476562 9.996094 10 9.996094 5.519531 0 9.996094-4.476562 9.996094-9.996094v-10c0-5.519531-4.476563-9.996094-9.996094-9.996094zm0 0"/><path d="m250.066406 81.644531c1.796875 0 3.558594-.488281 5.101563-1.402343.507812-.289063 49.378906-28.59375 144.871093-28.59375 5.519532 0 9.996094-4.476563 9.996094-9.996094 0-5.523438-4.476562-10-9.996094-10-101.578124 0-152.96875 30.132812-155.117187 31.421875-3.851563 2.316406-5.6875 6.910156-4.488281 11.242187 1.203125 4.328125 5.140625 7.324219 9.632812 7.328125zm0 0"/></svg>