<svg height="496pt" viewBox="-15 0 495 496" width="496pt" xmlns="http://www.w3.org/2000/svg"><path d="m168.5 32h-112c-13.230469 0-24 10.769531-24 24v192c0 13.230469 10.769531 24 24 24h112c13.230469 0 24-10.769531 24-24v-192c0-13.230469-10.769531-24-24-24zm8 216c0 4.40625-3.585938 8-8 8h-112c-4.414062 0-8-3.59375-8-8v-192c0-4.40625 3.585938-8 8-8h112c4.414062 0 8 3.59375 8 8zm0 0"/><path d="m64.5 64h16v16h-16zm0 0"/><path d="m104.5 64h16v16h-16zm0 0"/><path d="m144.5 64h16v16h-16zm0 0"/><path d="m64.5 96h16v16h-16zm0 0"/><path d="m104.5 96h16v16h-16zm0 0"/><path d="m144.5 96h16v16h-16zm0 0"/><path d="m64.5 128h16v16h-16zm0 0"/><path d="m104.5 128h16v16h-16zm0 0"/><path d="m144.5 128h16v16h-16zm0 0"/><path d="m64.5 160h16v16h-16zm0 0"/><path d="m104.5 160h16v16h-16zm0 0"/><path d="m144.5 160h16v16h-16zm0 0"/><path d="m64.5 192h16v16h-16zm0 0"/><path d="m104.5 192h16v16h-16zm0 0"/><path d="m144.5 192h16v16h-16zm0 0"/><path d="m64.5 224h16v16h-16zm0 0"/><path d="m104.5 224h16v16h-16zm0 0"/><path d="m144.5 224h16v16h-16zm0 0"/><path d="m104.5 440h16v16h-16zm0 0"/><path d="m464.5 80v-16h-16v-8c0-13.230469-10.769531-24-24-24h-24v-16c0-8.824219-7.175781-16-16-16h-48c-8.824219 0-16 7.175781-16 16v16h-24c-13.230469 0-24 10.769531-24 24v8h-16v16h16v16h-16v16h16v16h-16v16h16v16h-16v16h16v16h-16v16h16v16h-16v16h16v8c0 13.230469 10.769531 24 24 24h16v16c0 8.824219 7.175781 16 16 16v176c0 8.824219 7.175781 16 16 16h32c8.824219 0 16-7.175781 16-16v-176c8.824219 0 16-7.175781 16-16v-16h16c13.230469 0 24-10.769531 24-24v-8h16v-16h-16v-16h16v-16h-16v-16h16v-16h-16v-16h16v-16h-16v-16h16v-16h-16v-16zm-32-24v8h-48v-16h40c4.414062 0 8 3.59375 8 8zm-64 24v176h-16v-208h16zm-32-64h48v16h-48zm-48 40c0-4.40625 3.585938-8 8-8h40v16h-48zm0 24h48v16h-48zm0 32h48v16h-48zm0 32h48v16h-48zm0 32h48v16h-48zm0 32h48v16h-48zm0 40v-8h48v16h-40c-4.414062 0-8-3.59375-8-8zm88 72h-16v16h16v16h-16v16h16v16h-16v16h16v16h-16v16h16v16h-16v16h16v16h-32v-176h32zm16-32h-64v-16h64zm40-40c0 4.40625-3.585938 8-8 8h-40v-16h48zm0-24h-48v-16h48zm0-32h-48v-16h48zm0-32h-48v-16h48zm0-32h-48v-16h48zm0-32h-48v-16h48zm0 0"/><path d="m168.5 0h-112c-30.871094 0-56 25.121094-56 56v192c0 30.871094 25.128906 56 56 56h16v168c0 13.230469 10.769531 24 24 24h32c13.230469 0 24-10.769531 24-24v-168h16c30.871094 0 56-25.128906 56-56v-192c0-30.878906-25.128906-56-56-56zm-40 480h-32c-4.414062 0-8-3.585938-8-8v-56h48v56c0 4.414062-3.585938 8-8 8zm8-80h-48v-96h48zm72-152c0 22.054688-17.945312 40-40 40h-112c-22.054688 0-40-17.945312-40-40v-192c0-22.054688 17.945312-40 40-40h112c22.054688 0 40 17.945312 40 40zm0 0"/></svg>