<?xml version="1.0" encoding="iso-8859-1"?>
<!-- Generator: Adobe Illustrator 19.0.0, SVG Export Plug-In . SVG Version: 6.00 Build 0)  -->
<svg xmlns="http://www.w3.org/2000/svg" xmlns:xlink="http://www.w3.org/1999/xlink" version="1.1" id="Capa_1" x="0px" y="0px" viewBox="0 0 511.985 511.985" style="enable-background:new 0 0 511.985 511.985;" xml:space="preserve" width="512" height="512">
<path d="M507.448,180.339L387.935,60.826c-2.931-2.931-6.827-4.545-10.972-4.545c-4.145,0-8.042,1.614-10.972,4.545l-38.629,38.628  c-2.931,2.931-4.544,6.827-4.544,10.972c0,3.717,1.307,7.227,3.688,10.027l-15.599,15.599c-16.626-7.286-35.441-8.042-52.519-2.252  c-19.23-5.777-39.804-5.056-57.577,1.987l-15.333-15.333c2.381-2.8,3.688-6.311,3.688-10.027c0-4.145-1.614-8.041-4.544-10.972  l-38.628-38.628c-2.931-2.931-6.827-4.545-10.972-4.545c-4.145,0-8.041,1.614-10.971,4.545L4.537,180.339  c-6.049,6.049-6.049,15.893,0,21.943l38.629,38.628c2.931,2.931,6.827,4.544,10.972,4.544c3.35,0,6.528-1.07,9.175-3.022  l56.473,56.473c-0.954,0.765-1.879,1.584-2.764,2.468l-15.085,15.085c-13.054,13.054-13.054,34.293,0,47.347  c6.527,6.527,15.1,9.79,23.673,9.79c1.155,0,2.309-0.064,3.459-0.183c-0.998,9.686,2.201,19.727,9.608,27.133  c6.527,6.527,15.1,9.79,23.673,9.79c2.646,0,5.292-0.313,7.878-0.935c0.095,8.446,3.351,16.863,9.781,23.293  c6.527,6.527,15.1,9.79,23.673,9.79c3.934,0,7.865-0.696,11.602-2.07l5.019,5.018c6.806,6.806,16.126,10.273,25.283,10.273  c7.987,0,15.85-2.639,21.804-8.002c6.681-6.016,10.585-14.19,11.057-23.103c11.37,3.678,24.313,1.697,33.103-6.218  c6.618-5.959,10.511-14.038,11.042-22.852c11.464,3.853,24.607,1.92,33.499-6.087c6.627-5.968,10.522-14.061,11.044-22.89  c11.45,3.826,24.563,1.885,33.438-6.107c6.911-6.223,10.851-14.756,11.093-24.026c0.239-9.14-3.331-18.089-9.794-24.553  l-11.317-11.317l58.117-58.117c2.647,1.952,5.824,3.022,9.175,3.022c4.145,0,8.041-1.614,10.972-4.544l38.629-38.629  C513.497,196.232,513.497,186.388,507.448,180.339z M112.543,353.199c-7.205-7.205-7.205-18.929,0-26.134l15.085-15.085  c3.603-3.603,8.335-5.404,13.067-5.404s9.464,1.801,13.067,5.404c7.205,7.205,7.205,18.929,0,26.134l-15.085,15.085  C131.472,360.404,119.748,360.404,112.543,353.199z M149.283,389.939c-3.49-3.49-5.413-8.131-5.413-13.067s1.922-9.577,5.413-13.067  l7.916-7.916c3.603-3.603,8.335-5.404,13.067-5.404s9.464,1.801,13.067,5.404c7.205,7.205,7.205,18.929,0,26.134l-7.916,7.916  c-3.49,3.49-8.131,5.413-13.067,5.413S152.773,393.429,149.283,389.939z M190.616,422.087c-7.205-7.205-7.205-18.929,0-26.134  c3.603-3.603,8.335-5.404,13.067-5.404s9.464,1.801,13.067,5.404c7.205,7.205,7.205,18.929,0,26.134  S197.821,429.292,190.616,422.087z M396.672,336.027c-0.134,5.116-2.313,9.829-6.136,13.271c-6.805,6.129-19.409,5.303-26.443-1.731  l-28.417-28.417c-2.929-2.929-7.678-2.929-10.606,0c-2.929,2.929-2.929,7.678,0,10.606l21.714,21.714  c3.62,3.62,5.54,8.434,5.406,13.554c-0.134,5.116-2.313,9.829-6.135,13.271c-6.807,6.128-19.411,5.303-26.444-1.731l-28.475-28.475  c-2.928-2.929-7.677-2.929-10.606,0c-2.929,2.929-2.929,7.677,0,10.606l21.713,21.714c3.62,3.62,5.54,8.434,5.406,13.554  c-0.134,5.116-2.313,9.829-6.135,13.271c-6.806,6.128-19.409,5.304-26.443-1.73l-28.094-28.094c-2.929-2.929-7.678-2.929-10.606,0  c-2.929,2.929-2.929,7.678,0,10.606l21.713,21.713l0.027,0.027c3.603,3.617,5.513,8.419,5.379,13.527  c-0.134,5.116-2.313,9.829-6.136,13.271c-6.805,6.128-19.408,5.304-26.443-1.731l-2.86-2.86  c12.347-13.104,12.123-33.802-0.693-46.618c-6.682-6.682-15.51-9.935-24.286-9.776c2.124-10.618-0.917-22.073-9.131-30.288  c-5.969-5.969-13.649-9.199-21.476-9.71c3.833-11.633,1.141-24.964-8.095-34.2c-8.16-8.16-19.52-11.219-30.079-9.177l-60.234-60.234  l2.557-2.557c2.929-2.929,2.929-7.678,0-10.606c-2.929-2.929-7.678-2.929-10.606,0l-11.504,11.504  c-0.038,0.037-0.151,0.151-0.365,0.151c-0.214,0-0.328-0.114-0.365-0.151l-38.628-38.628c-0.202-0.202-0.202-0.53,0-0.731  L134.658,71.431c0.037-0.037,0.151-0.151,0.364-0.151c0.214,0,0.328,0.114,0.365,0.151l38.629,38.628  c0.037,0.038,0.151,0.151,0.151,0.365c0,0.213-0.114,0.327-0.151,0.365l-85.475,85.475c-2.929,2.929-2.929,7.678,0,10.606  c2.929,2.929,7.678,2.929,10.606,0l75.769-75.769l18.901,18.901c1.439,1.439,3.358,2.197,5.305,2.197  c1.095,0,2.199-0.24,3.231-0.732c10.435-4.985,22.709-7.104,34.957-6.303c-2.35,1.829-4.624,3.802-6.783,5.962l-41.124,41.124  c-13.054,13.054-13.054,34.293,0,47.347c6.323,6.323,14.73,9.806,23.673,9.806s17.35-3.482,23.673-9.806l29.787-29.787  c3.327-3.326,8.741-3.327,12.067,0l112.662,112.662C394.887,326.092,396.807,330.906,396.672,336.027z M496.842,191.675  l-38.629,38.628c-0.038,0.037-0.151,0.151-0.365,0.151c-0.213,0-0.327-0.114-0.365-0.151l-84.974-84.974  c-2.929-2.929-7.678-2.929-10.606,0c-2.929,2.929-2.929,7.678,0,10.606l76.027,76.027l-57.979,57.979l-90.739-90.74  c-9.176-9.174-24.105-9.173-33.28,0l-29.787,29.788c-7.205,7.205-18.929,7.205-26.134,0s-7.205-18.929,0-26.134l41.124-41.124  c22.399-22.398,58.845-22.398,81.245,0c2.929,2.929,7.678,2.929,10.606,0c2.929-2.929,2.929-7.678,0-10.606  c-2.711-2.711-5.588-5.156-8.593-7.347l12.677-12.678l2.108,2.108c2.929,2.929,7.678,2.929,10.606,0  c2.929-2.929,2.929-7.678,0-10.606l-11.814-11.814c-0.037-0.038-0.151-0.151-0.151-0.365c0-0.214,0.114-0.328,0.151-0.365  l38.629-38.629c0.037-0.037,0.151-0.151,0.365-0.151c0.213,0,0.327,0.114,0.365,0.151l119.513,119.513  C497.043,191.146,497.043,191.474,496.842,191.675z"/>















</svg>
